<?xml version="1.0" encoding="UTF-8" standalone="no"?>
<!-- Created with Inkscape (http://www.inkscape.org/) -->

<svg
   xmlns:i="&amp;#38;ns_ai;"
   xmlns:dc="http://purl.org/dc/elements/1.1/"
   xmlns:cc="http://creativecommons.org/ns#"
   xmlns:rdf="http://www.w3.org/1999/02/22-rdf-syntax-ns#"
   xmlns:svg="http://www.w3.org/2000/svg"
   xmlns="http://www.w3.org/2000/svg"
   xmlns:sodipodi="http://sodipodi.sourceforge.net/DTD/sodipodi-0.dtd"
   xmlns:inkscape="http://www.inkscape.org/namespaces/inkscape"
   width="450"
   height="436"
   viewBox="0 0 744.09449 1052.3622"
   id="svg2"
   version="1.1"
   inkscape:version="0.91 r13725"
   sodipodi:docname="Sunflower_from_Mediawiki_logo_reworked_2_3.svg">
  <defs
     id="defs4" />
  <sodipodi:namedview
     id="base"
     pagecolor="#ffffff"
     bordercolor="#666666"
     borderopacity="1.0"
     inkscape:pageopacity="0.0"
     inkscape:pageshadow="2"
     inkscape:zoom="0.54"
     inkscape:cx="-126.42857"
     inkscape:cy="212.5911"
     inkscape:document-units="px"
     inkscape:current-layer="layer1"
     showgrid="false"
     inkscape:window-width="1366"
     inkscape:window-height="705"
     inkscape:window-x="-8"
     inkscape:window-y="-8"
     inkscape:window-maximized="1" />
  <metadata
     id="metadata7">
    <rdf:RDF>
      <cc:Work
         rdf:about="">
        <dc:format>image/svg+xml</dc:format>
        <dc:type
           rdf:resource="http://purl.org/dc/dcmitype/StillImage" />
        <dc:title></dc:title>
      </cc:Work>
    </rdf:RDF>
  </metadata>
  <g
     inkscape:label="Layer 1"
     inkscape:groupmode="layer"
     id="layer1">
    <g
       transform="matrix(2.440482,0,0,2.4363337,-598.63374,-95.589562)"
       id="Layer_3"
       i:layer="yes"
       i:dimmedPercent="50"
       i:rgbTrio="#4F008000FFFF">
      <g
         id="g7">
        <g
           id="Brackets"
           i:knockout="Off" />
        <path
           style="fill:none; stroke: #ffffff; stroke-width:15"
           inkscape:connector-curvature="0"
           id="Tournesol_1_"
           d="m 204.147,302.392 c -4.659,15.826 11.188,28.896 24.93,30.471 -5.139,5.35 -12.865,5.041 -18.95,8.609 10.123,23.785 40.177,29.039 62.263,22.084 -18.86,16.998 -34.881,38.835 -39.004,64.104 1.054,1.41 4.699,0.842 6.771,1.231 22.802,0.212 44.3,-10.735 61.556,-25.237 6.97,17.194 -12.719,25.237 -26.287,27.268 15.182,21.4 43.549,7.621 53.681,-11.57 -1.873,13.865 -3.702,27.793 -6.846,41.443 24.149,0.088 45.251,-16.111 53.014,-38.897 l 0,-0.085 c 3.548,13.384 1.502,28.128 -4.416,40.316 8.388,5.957 26.771,1.871 33.04,-5.537 6.813,-8.053 12.099,-19.422 15.695,-29.238 6.849,13.9 14.79,28.193 15.886,43.826 25.994,-4.807 33.474,-35.326 31.882,-57.301 13.821,20.668 33.218,40.234 57.606,46.832 7.847,-25.914 -3.084,-54.479 -18.635,-75.628 8.562,0.5 19.662,-0.151 26.164,6.87 5.683,6.139 5.79,16.047 6.967,23.834 25.366,-13.209 10.776,-45.184 -7.528,-57.684 13.844,4.48 28.103,8.299 41.671,13.305 2.405,-19.23 -6.689,-40.458 -22.606,-51.991 10.758,1.303 23.115,8.144 30.718,15.882 l 0,0 c 9.96,-8.299 1.475,-32.621 -2.208,-37.979 -4.072,-5.928 -11.352,-13.452 -18.643,-19.243 15.585,-2.623 30.424,-7.561 46.476,-4.001 -0.564,-21.185 -12.428,-31.073 -26.47,-38.781 -7.414,-1.887 -13.873,-5.137 -21.545,-6.156 22.804,-9.063 49.362,-21.096 60.941,-44.321 -23.925,-11.638 -52.801,-11.426 -77.646,-1.403 3.247,-26.169 19.868,-22.708 37.093,-21.242 -7.808,-23.409 -36.623,-21.444 -52.706,-10.288 7.405,-10.12 12.628,-26.152 21.544,-34.472 -22.683,-7.842 -50.047,-1.222 -66.056,18.376 2.812,-14.699 9.237,-30.841 21.36,-40.536 -18.044,-19.052 -45.358,-1.157 -58.721,14.772 -0.274,-15.732 -3.391,-32.043 1.668,-47.215 -27.771,-3.55 -43.808,19.174 -49.688,42.31 -5.186,-24.024 -17.489,-49.846 -36.927,-65.885 -15.12,20.46 -18.075,47.267 -12.927,71.406 -19.307,-2.725 -15.174,-23.624 -11.269,-36.7 -26.28,3.45 -27.293,34.332 -16.433,52.705 -10.763,-8.687 -21.795,-17.584 -32.484,-26.288 -4.931,10.355 -8.24,21.448 -7.527,33.059 -4.161,-2.673 -4.642,-9.159 -7.994,-12.176 -22.987,12.433 -14.541,42.585 -3.086,60.189 -15.28,-3.827 -31.485,-6.593 -44.798,-15.823 -11.442,22.145 6.202,49.718 25.989,61.216 -26.892,-3.009 -50.575,1.751 -74.449,14.009 7.615,12.288 24.858,24.937 38.618,31.08 -4.603,2.089 -20.065,-4.504 -24.833,-2.833 0.655,1.253 23.449,35.669 52.389,33.001 -7.982,14.28 -28.719,9.759 -37.24,0.312" />
        <g
           id="Inline_stripes"
           i:knockout="Off">
          <path
             style="fill:none;stroke:#ffffff;stroke-width:15;stroke-linecap:round"
             inkscape:connector-curvature="0"
             d="m 345.167,107.165 c 6.136,24.385 20.526,56.996 37.5,76.083"
             id="path20" />
          <path
             style="fill:none;stroke:#ffffff;stroke-width:15;stroke-linecap:round"
             inkscape:connector-curvature="0"
             d="m 395.333,180.582 c -2.419,-20.66 -3.396,-57.697 2,-79.917"
             id="path22" />
          <path
             style="fill:none;stroke:#ffffff;stroke-width:15;stroke-linecap:round"
             inkscape:connector-curvature="0"
             d="m 246.333,225.915 c 18.738,10.288 51.357,19.404 71.667,24.667"
             id="path24" />
          <path
             style="fill:none;stroke:#ffffff;stroke-width:15;stroke-linecap:round"
             inkscape:connector-curvature="0"
             d="m 316.667,262.582 c -36.5,18.167 -89.167,12.834 -99.333,10.5"
             id="path26" />
          <path
             style="fill:none;stroke:#ffffff;stroke-width:15;stroke-linecap:round"
             inkscape:connector-curvature="0"
             d="M 231.833,303.665 C 256.36,304.257 294.144,293.607 318,290.248"
             id="path28" />
          <path
             style="fill:none;stroke:#ffffff;stroke-width:15;stroke-linecap:round"
             inkscape:connector-curvature="0"
             d="m 218.75,333.082 c 31.297,3.414 76.972,-15.959 106.25,-23.834"
             id="path30" />
          <path
             style="fill:none;stroke:#ffffff;stroke-width:15;stroke-linecap:round"
             inkscape:connector-curvature="0"
             d="m 299.417,407.832 c 17.423,-17.621 37.215,-49.515 45.917,-72.917"
             id="path32" />
          <path
             style="fill:none;stroke:#ffffff;stroke-width:15;stroke-linecap:round"
             inkscape:connector-curvature="0"
             d="m 326.583,426.082 c 4.614,-23.654 20.066,-60.253 37.75,-78.167"
             id="path34" />
          <path
             style="fill:none;stroke:#ffffff;stroke-width:15;stroke-linecap:round"
             inkscape:connector-curvature="0"
             d="m 374.75,427.082 c 6.355,-20.051 14.87,-49.203 18.583,-69.834"
             id="path36" />
          <path
             style="fill:none;stroke:#ffffff;stroke-width:15;stroke-linecap:round"
             inkscape:connector-curvature="0"
             d="m 419.5,431.249 c 6.803,-21.58 8.416,-53.775 5.167,-76.334"
             id="path38" />
          <path
             style="fill:none;stroke:#ffffff;stroke-width:15;stroke-linecap:round"
             inkscape:connector-curvature="0"
             d="m 469.667,419.916 c -3.225,-20.68 -17.265,-52.991 -26,-72.001"
             id="path40" />
          <path
             style="fill:none;stroke:#ffffff;stroke-width:15;stroke-linecap:round"
             inkscape:connector-curvature="0"
             d="M 510,387.249 C 497.53,370.796 474.768,350.762 457,340.248"
             id="path42" />
          <path
             style="fill:none;stroke:#ffffff;stroke-width:15;stroke-linecap:round"
             inkscape:connector-curvature="0"
             d="m 537.833,361.249 c -19.364,-7.184 -48.596,-23.02 -62.5,-39.334"
             id="path44" />
          <path
             style="fill:none;stroke:#ffffff;stroke-width:15;stroke-linecap:round"
             inkscape:connector-curvature="0"
             d="m 556.333,321.916 c -19.098,-12.309 -46.189,-23.344 -67,-32.334"
             id="path46" />
          <path
             style="fill:none;stroke:#ffffff;stroke-width:15;stroke-linecap:round"
             inkscape:connector-curvature="0"
             d="m 491.924,252.838 c 24.322,3.139 51.059,13.222 72.076,25.952"
             id="path48" />
          <path
             style="fill:none;stroke:#ffffff;stroke-width:15;stroke-linecap:round"
             inkscape:connector-curvature="0"
             d="m 488.23,235.603 c 23.209,-4.955 53.289,-9.184 77.145,-6.812"
             id="path50" />
          <path
             style="fill:none;stroke:#ffffff;stroke-width:15;stroke-linecap:round"
             inkscape:connector-curvature="0"
             d="m 482.69,224.522 c 16.21,-18.965 37.94,-33.706 60.935,-42.857"
             id="path52" />
          <path
             style="fill:none;stroke:#ffffff;stroke-width:15;stroke-linecap:round"
             inkscape:connector-curvature="0"
             d="m 530.375,149.415 c -14.346,22.679 -40.244,46.902 -66.042,56.5"
             id="path54" />
          <path
             style="fill:none;stroke:#ffffff;stroke-width:15;stroke-linecap:round"
             inkscape:connector-curvature="0"
             d="m 484.312,131.478 c -15.097,16.351 -30.479,36.657 -44.097,54.264"
             id="path56" />
          <path
             style="fill:none;stroke:#ffffff;stroke-width:15;stroke-linecap:round"
             inkscape:connector-curvature="0"
             d="m 316.062,122.29 c 18.46,15.432 41.63,43.092 47.938,66.958"
             id="path58" />
          <path
             style="fill:none;stroke:#ffffff;stroke-width:15;stroke-linecap:round"
             inkscape:connector-curvature="0"
             d="m 278.062,129.603 c 8.988,10.88 24.224,20.905 34.836,29.74 12.452,10.367 19.666,35.489 24.768,50.239"
             id="path60" />
          <path
             style="fill:none;stroke:#ffffff;stroke-width:15;stroke-linecap:round"
             inkscape:connector-curvature="0"
             d="m 265,178.54 c 12.501,18.935 38.839,43.536 58.333,54.708"
             id="path62" />
          <path
             style="fill:none;stroke:#ffffff;stroke-width:15;stroke-linecap:round"
             inkscape:connector-curvature="0"
             d="M 446.938,106.103 C 431.351,125.53 419.698,157.478 413,181.249"
             id="path64" />
          <path
             style="fill:none;stroke:#ffffff;stroke-width:15;stroke-linecap:round"
             inkscape:connector-curvature="0"
             d="M 263.667,367.248 C 284.395,359.176 319.313,340.876 337,326.915"
             id="path66" />
        </g>
        <circle
           style="fill:none; stroke:#ffffff; stroke-width:15"
           cx="403.5"
           cy="268.58099"
           r="88.333"
           id="circle70" />
        <g
           i:knockout="Off"
           id="g72" />
      </g>
    </g>
  </g>
</svg>
